<?xml version="1.0" standalone="no"?><!DOCTYPE svg PUBLIC "-//W3C//DTD SVG 1.1//EN" "http://www.w3.org/Graphics/SVG/1.1/DTD/svg11.dtd"><svg height="1024" node-id="1" sillyvg="true" template-height="1024" template-width="1024" version="1.1" viewBox="0 0 1024 1024" width="1024" xmlns="http://www.w3.org/2000/svg" xmlns:xlink="http://www.w3.org/1999/xlink"><defs node-id="28"></defs><g node-id="130"><path d="M 627.70 731.40 L 283.70 729.80 L 357.50 637.20 L 409.10 670.70 C 415.20 674.70 423.50 673.40 428.00 667.50 L 480.90 600.80 L 627.70 731.40 Z M 648.60 460.50 L 647.50 710.70 L 488.80 569.40 C 485.80 566.90 482.00 565.50 478.10 565.80 C 474.20 566.10 470.60 568.10 468.20 571.20 L 414.00 639.60 L 362.40 606.10 C 356.30 602.10 348.00 603.40 343.50 609.30 L 262.50 710.90 L 263.70 458.60 C 263.70 450.70 270.20 444.30 278.10 444.30 L 634.60 445.90 C 642.30 446.10 648.60 452.60 648.60 460.50 Z M 609.00 530.30 C 609.00 514.50 596.40 501.70 580.70 501.70 C 565.00 501.70 552.00 514.20 552.00 530.00 C 552.00 545.80 564.60 558.70 580.30 558.70 C 595.90 558.80 608.80 546.00 609.00 530.30 Z" fill="#b3b3b3" fill-opacity="0.35" fill-rule="nonzero" group-id="1" node-id="34" stroke="none" target-height="287.10004" target-width="386.09998" target-x="262.5" target-y="444.3"></path></g><g node-id="131"><path d="M 643.20 305.00 L 643.20 305.00 C 527.20 304.10 431.60 392.50 421.10 505.90 C 393.30 477.20 354.50 459.20 311.40 459.00 L 311.40 459.00 C 226.20 458.30 156.60 526.80 156.00 612.00 L 154.80 764.10 L 418.20 766.00 L 463.40 766.30 L 861.10 769.30 L 862.90 527.90 C 863.80 405.80 765.40 305.90 643.20 305.00 Z" fill="#b3b3b3" fill-opacity="0.1" fill-rule="nonzero" group-id="2" node-id="39" stroke="none" target-height="465.19998" target-width="709" target-x="154.8" target-y="304.1"></path></g><g node-id="132"><path d="M 275.40 290.90 C 270.30 290.90 265.60 292.50 261.90 295.20 C 262.20 293.70 262.30 292.20 262.30 290.70 C 262.50 278.30 252.40 268.10 239.80 267.90 C 227.20 267.70 217.10 277.80 217.00 290.40 C 217.00 290.90 217.00 291.30 217.00 291.80 C 214.60 290.90 211.90 290.30 209.20 290.30 C 196.70 290.10 186.50 300.20 186.40 312.80 C 186.20 325.10 196.00 335.20 208.20 335.60 L 208.20 335.60 L 275.10 336.00 C 287.60 336.10 297.80 326.10 297.90 313.50 C 298.00 300.90 287.80 291.00 275.40 290.90 Z" fill="#b3b3b3" fill-opacity="0.3" fill-rule="nonzero" group-id="3" node-id="44" stroke="none" target-height="68.399994" target-width="111.8" target-x="186.2" target-y="267.7"></path></g><g node-id="133"><path d="M 844.60 241.10 C 839.50 241.10 834.80 242.80 831.10 245.40 C 831.40 243.90 831.50 242.40 831.50 240.90 C 831.60 228.40 821.60 218.20 809.00 218.10 C 796.40 218.00 786.40 228.00 786.20 240.60 C 786.20 241.10 786.20 241.50 786.20 241.90 C 783.80 241.00 781.10 240.40 778.40 240.40 C 766.00 240.20 755.80 250.30 755.60 262.90 C 755.50 275.20 765.20 285.30 777.40 285.70 L 777.40 285.70 L 844.30 286.10 C 856.70 286.30 866.90 276.20 867.10 263.60 C 867.30 251.10 857.10 241.20 844.60 241.10 Z" fill="#b3b3b3" fill-opacity="0.3" fill-rule="nonzero" group-id="4" node-id="49" stroke="none" target-height="68.29999" target-width="111.79999" target-x="755.5" target-y="218"></path></g><g node-id="134"><g node-id="135"><path d="M 695.40 696.00 C 692.20 696.00 689.80 698.40 689.80 701.50 C 689.80 703.80 691.00 705.60 692.80 706.50 L 692.00 804.10 L 697.30 804.10 L 698.10 706.10 C 699.80 705.20 700.80 703.40 700.80 701.40 C 700.90 698.40 698.50 696.20 695.40 696.00 Z" fill="#b3b3b3" fill-opacity="0.1" fill-rule="nonzero" group-id="5,6" node-id="56" stroke="none" target-height="108.099976" target-width="11.100037" target-x="689.8" target-y="696"></path><path d="M 808.50 702.30 C 808.50 699.50 806.10 696.90 803.00 696.80 C 799.90 696.80 797.40 699.20 797.40 702.30 C 797.40 704.40 798.60 706.20 800.30 707.10 L 799.50 804.90 L 804.80 804.90 L 805.60 707.10 C 807.30 706.20 808.30 704.40 808.50 702.30 Z" fill="#b3b3b3" fill-opacity="0.1" fill-rule="nonzero" group-id="5,6" node-id="58" stroke="none" target-height="108.10004" target-width="11.099976" target-x="797.4" target-y="696.8"></path></g><g node-id="136"><path d="M 677.21 739.20 L 677.39 714.40 L 815.89 715.43 L 815.71 740.23 Z" fill="#b3b3b3" fill-opacity="0.1" fill-rule="nonzero" group-id="5,7" node-id="63" stroke="none" target-height="25.831604" target-width="138.6847" target-x="677.2072" target-y="714.3961"></path></g><g node-id="137"><path d="M 693.10 714.50 L 692.80 714.90 L 678.30 739.20 L 677.20 739.20 L 677.40 714.50 Z" fill="#b3b3b3" fill-opacity="0.1" fill-rule="nonzero" group-id="5,8" node-id="68" stroke="none" target-height="24.700012" target-width="15.899963" target-x="677.2" target-y="714.5"></path></g><g node-id="138"><path d="M 728.10 714.80 L 713.20 739.50 L 694.50 739.40 L 700.30 729.50 L 709.00 714.60 Z" fill="#b3b3b3" fill-opacity="0.1" fill-rule="nonzero" group-id="5,9" node-id="73" stroke="none" target-height="24.900024" target-width="33.599976" target-x="694.5" target-y="714.6"></path></g><g node-id="139"><path d="M 763.00 715.10 L 748.20 739.70 L 729.40 739.50 L 744.00 714.90 Z" fill="#b3b3b3" fill-opacity="0.1" fill-rule="nonzero" group-id="5,10" node-id="78" stroke="none" target-height="24.799988" target-width="33.599976" target-x="729.4" target-y="714.9"></path></g><g node-id="140"><path d="M 798.00 715.40 L 783.30 740.00 L 764.40 739.80 L 779.10 715.20 Z" fill="#b3b3b3" fill-opacity="0.1" fill-rule="nonzero" group-id="5,11" node-id="83" stroke="none" target-height="24.799988" target-width="33.599976" target-x="764.4" target-y="715.2"></path></g><g node-id="141"><path d="M 815.80 715.40 L 815.70 740.30 L 799.30 740.10 L 814.00 715.40 Z" fill="#b3b3b3" fill-opacity="0.1" fill-rule="nonzero" group-id="5,12" node-id="88" stroke="none" target-height="24.899963" target-width="16.5" target-x="799.3" target-y="715.4"></path></g><g node-id="142"><path d="M 676.93 777.48 L 677.11 752.68 L 815.61 753.71 L 815.43 778.51 Z" fill="#b3b3b3" fill-opacity="0.1" fill-rule="nonzero" group-id="5,13" node-id="93" stroke="none" target-height="25.831604" target-width="138.68475" target-x="676.93" target-y="752.67706"></path></g><g node-id="143"><path d="M 692.80 752.70 L 692.50 753.20 L 678.00 777.50 L 676.90 777.50 L 677.10 752.70 Z" fill="#b3b3b3" fill-opacity="0.1" fill-rule="nonzero" group-id="5,14" node-id="98" stroke="none" target-height="24.799988" target-width="15.899963" target-x="676.9" target-y="752.7"></path></g><g node-id="144"><path d="M 727.80 753.00 L 712.90 777.80 L 694.20 777.60 L 700.00 767.70 L 708.70 752.90 Z" fill="#b3b3b3" fill-opacity="0.1" fill-rule="nonzero" group-id="5,15" node-id="103" stroke="none" target-height="24.899963" target-width="33.599976" target-x="694.2" target-y="752.9"></path></g><g node-id="145"><path d="M 762.70 753.30 L 747.90 777.90 L 729.10 777.80 L 743.70 753.20 Z" fill="#b3b3b3" fill-opacity="0.1" fill-rule="nonzero" group-id="5,16" node-id="108" stroke="none" target-height="24.700012" target-width="33.600037" target-x="729.1" target-y="753.2"></path></g><g node-id="146"><path d="M 797.70 753.60 L 783.10 778.20 L 764.10 778.10 L 778.80 753.50 Z" fill="#b3b3b3" fill-opacity="0.1" fill-rule="nonzero" group-id="5,17" node-id="113" stroke="none" target-height="24.700012" target-width="33.600037" target-x="764.1" target-y="753.5"></path></g><g node-id="147"><path d="M 815.50 753.80 L 815.40 778.50 L 799.00 778.40 L 813.70 753.80 Z" fill="#b3b3b3" fill-opacity="0.1" fill-rule="nonzero" group-id="5,18" node-id="118" stroke="none" target-height="24.700012" target-width="16.5" target-x="799" target-y="753.8"></path></g><g node-id="148"><path d="M 815.70 740.30 C 815.70 740.30 815.70 740.20 815.70 739.80 L 815.70 738.40 C 815.70 737.40 815.70 735.70 815.70 733.60 C 815.70 729.40 815.80 723.20 815.80 715.30 L 815.90 715.50 L 677.40 714.70 L 677.40 714.70 L 677.60 714.50 C 677.60 722.90 677.40 731.30 677.40 739.30 L 677.20 739.20 L 775.90 740.10 L 805.20 740.20 L 813.10 740.20 L 813.10 740.20 L 805.20 740.20 L 775.90 740.10 L 677.20 739.70 L 676.80 739.70 L 676.90 714.50 L 677.10 714.50 L 815.60 715.70 L 815.70 715.70 L 815.70 715.80 C 815.70 723.80 815.60 729.90 815.60 734.10 C 815.60 736.40 815.60 737.90 815.60 738.90 L 815.60 739.90 L 815.60 740.30 Z" fill="#b3b3b3" fill-opacity="0.1" fill-rule="nonzero" group-id="5,19" node-id="123" stroke="none" target-height="25.799988" target-width="139.10004" target-x="676.8" target-y="714.5"></path></g><path d="M 815.40 778.50 C 815.40 778.50 815.40 778.40 815.40 778.00 L 815.40 776.60 C 815.40 775.60 815.40 773.90 815.40 771.80 C 815.40 767.60 815.50 761.40 815.50 753.50 L 815.60 753.60 L 677.20 753.00 L 677.20 753.00 L 677.40 752.90 C 677.40 761.30 677.20 769.70 677.20 777.70 L 677.00 777.60 L 775.70 778.50 L 805.00 778.60 L 812.90 778.60 L 812.90 778.60 L 805.00 778.60 L 775.70 778.50 L 677.00 778.10 L 676.60 778.10 L 676.70 753.00 L 676.90 753.00 L 815.40 754.20 L 815.50 754.20 L 815.50 754.30 C 815.50 762.20 815.40 768.40 815.40 772.60 C 815.40 774.90 815.40 776.40 815.40 777.40 L 815.40 778.40 C 815.40 778.20 815.40 778.50 815.40 778.50 Z" fill="#b3b3b3" fill-opacity="0.1" fill-rule="nonzero" group-id="5,20" node-id="128" stroke="none" target-height="25.699951" target-width="139" target-x="676.6" target-y="752.9"></path></g></svg>